<svg xmlns="http://www.w3.org/2000/svg" xmlns:xlink="http://www.w3.org/1999/xlink" width="80" zoomAndPan="magnify" viewBox="0 0 60 60" height="80" preserveAspectRatio="xMidYMid meet" version="1.0"><defs><g/></defs><rect x="-6" width="72" fill="#ffffff" y="-6" height="72" fill-opacity="1"/><rect x="-6" width="72" fill="#ffffff" y="-6" height="72" fill-opacity="1"/><rect x="-6" width="72" fill="#e8255b" y="-6" height="72" fill-opacity="1"/><g fill="#ffffff" fill-opacity="1"><g transform="translate(12.925781, 28.57)"><g><path d="M 4.578125 1.40625 C 4.617188 1.195312 4.671875 0.992188 4.734375 0.796875 C 4.796875 0.609375 4.863281 0.421875 4.9375 0.234375 C 4.15625 0.148438 3.492188 -0.078125 2.953125 -0.453125 C 2.410156 -0.828125 1.96875 -1.300781 1.625 -1.875 C 1.28125 -2.445312 1.03125 -3.09375 0.875 -3.8125 C 0.71875 -4.539062 0.640625 -5.304688 0.640625 -6.109375 C 0.640625 -7.179688 0.773438 -8.125 1.046875 -8.9375 C 1.316406 -9.75 1.679688 -10.421875 2.140625 -10.953125 C 2.609375 -11.492188 3.15625 -11.898438 3.78125 -12.171875 C 4.40625 -12.441406 5.070312 -12.578125 5.78125 -12.578125 C 6.5 -12.578125 7.148438 -12.476562 7.734375 -12.28125 C 8.328125 -12.09375 8.828125 -11.832031 9.234375 -11.5 C 9.648438 -11.164062 9.96875 -10.769531 10.1875 -10.3125 C 10.414062 -9.851562 10.53125 -9.363281 10.53125 -8.84375 C 10.53125 -7.769531 9.984375 -7.234375 8.890625 -7.234375 C 8.566406 -7.234375 8.203125 -7.285156 7.796875 -7.390625 L 7.796875 -7.609375 C 7.796875 -9.390625 7.132812 -10.28125 5.8125 -10.28125 C 5.0625 -10.28125 4.515625 -9.929688 4.171875 -9.234375 C 3.835938 -8.546875 3.671875 -7.53125 3.671875 -6.1875 C 3.671875 -4.851562 3.878906 -3.863281 4.296875 -3.21875 C 4.722656 -2.570312 5.335938 -2.25 6.140625 -2.25 C 6.554688 -2.25 7.019531 -2.347656 7.53125 -2.546875 C 8.039062 -2.742188 8.597656 -3.054688 9.203125 -3.484375 C 9.492188 -3.285156 9.769531 -3.007812 10.03125 -2.65625 C 10.289062 -2.300781 10.453125 -1.960938 10.515625 -1.640625 C 10.046875 -1.171875 9.441406 -0.765625 8.703125 -0.421875 C 7.972656 -0.078125 7.195312 0.132812 6.375 0.21875 L 6.234375 0.578125 C 6.785156 0.597656 7.222656 0.757812 7.546875 1.0625 C 7.878906 1.363281 8.046875 1.769531 8.046875 2.28125 C 8.046875 2.53125 7.984375 2.769531 7.859375 3 C 7.734375 3.226562 7.554688 3.429688 7.328125 3.609375 C 7.109375 3.785156 6.847656 3.921875 6.546875 4.015625 C 6.253906 4.117188 5.9375 4.171875 5.59375 4.171875 C 4.914062 4.171875 4.378906 4.03125 3.984375 3.75 C 4.003906 3.25 4.160156 2.84375 4.453125 2.53125 C 4.671875 2.6875 4.945312 2.765625 5.28125 2.765625 C 5.707031 2.765625 5.921875 2.597656 5.921875 2.265625 C 5.921875 2.066406 5.863281 1.929688 5.75 1.859375 C 5.632812 1.785156 5.5 1.75 5.34375 1.75 C 5.207031 1.75 5.082031 1.765625 4.96875 1.796875 C 4.789062 1.710938 4.660156 1.582031 4.578125 1.40625 Z M 4.578125 1.40625 "/></g></g></g><g fill="#ffffff" fill-opacity="1"><g transform="translate(23.887744, 28.57)"><g><path d="M 4.03125 -3.34375 C 4.351562 -2.40625 5.007812 -1.9375 6 -1.9375 C 6.488281 -1.9375 6.882812 -2.0625 7.1875 -2.3125 C 7.5 -2.5625 7.738281 -2.875 7.90625 -3.25 C 8.082031 -3.625 8.203125 -4.046875 8.265625 -4.515625 C 8.328125 -4.984375 8.359375 -5.445312 8.359375 -5.90625 C 8.359375 -6.320312 8.34375 -6.785156 8.3125 -7.296875 C 8.28125 -7.816406 8.191406 -8.300781 8.046875 -8.75 C 7.898438 -9.207031 7.671875 -9.585938 7.359375 -9.890625 C 7.046875 -10.191406 6.59375 -10.34375 6 -10.34375 C 5.414062 -10.34375 4.972656 -10.195312 4.671875 -9.90625 C 4.367188 -9.613281 4.140625 -9.25 3.984375 -8.8125 C 3.835938 -8.382812 3.742188 -7.925781 3.703125 -7.4375 C 3.671875 -6.957031 3.65625 -6.53125 3.65625 -6.15625 C 3.65625 -5.601562 3.679688 -5.109375 3.734375 -4.671875 C 3.785156 -4.242188 3.882812 -3.800781 4.03125 -3.34375 Z M 2.578125 -0.859375 C 1.285156 -1.929688 0.640625 -3.691406 0.640625 -6.140625 C 0.640625 -7.191406 0.765625 -8.113281 1.015625 -8.90625 C 1.265625 -9.707031 1.617188 -10.378906 2.078125 -10.921875 C 2.535156 -11.460938 3.09375 -11.867188 3.75 -12.140625 C 4.414062 -12.421875 5.164062 -12.5625 6 -12.5625 C 6.820312 -12.5625 7.566406 -12.421875 8.234375 -12.140625 C 8.898438 -11.867188 9.460938 -11.457031 9.921875 -10.90625 C 10.390625 -10.363281 10.742188 -9.691406 10.984375 -8.890625 C 11.234375 -8.097656 11.359375 -7.179688 11.359375 -6.140625 C 11.359375 -5.097656 11.234375 -4.175781 10.984375 -3.375 C 10.742188 -2.570312 10.390625 -1.898438 9.921875 -1.359375 C 9.460938 -0.828125 8.898438 -0.421875 8.234375 -0.140625 C 7.566406 0.128906 6.820312 0.265625 6 0.265625 C 4.625 0.265625 3.484375 -0.109375 2.578125 -0.859375 Z M 2.578125 -0.859375 "/></g></g></g><g fill="#ffffff" fill-opacity="1"><g transform="translate(35.893706, 28.57)"><g><path d="M 11.046875 -0.703125 C 10.640625 -0.128906 10.003906 0.15625 9.140625 0.15625 C 8.648438 0.15625 8.28125 0.03125 8.03125 -0.21875 C 7.789062 -0.46875 7.578125 -0.894531 7.390625 -1.5 L 6.71875 -3.59375 C 6.53125 -4.164062 6.3125 -4.570312 6.0625 -4.8125 C 5.8125 -5.050781 5.472656 -5.171875 5.046875 -5.171875 C 4.898438 -5.171875 4.632812 -5.15625 4.25 -5.125 L 4.25 0 C 3.875 0.0703125 3.390625 0.109375 2.796875 0.109375 C 2.210938 0.109375 1.738281 0.0703125 1.375 0 L 1.375 -12.296875 C 1.738281 -12.367188 2.210938 -12.40625 2.796875 -12.40625 C 3.390625 -12.40625 3.875 -12.367188 4.25 -12.296875 L 4.25 -7.546875 L 4.71875 -7.5625 C 4.9375 -7.5625 5.09375 -7.597656 5.1875 -7.671875 C 5.28125 -7.753906 5.394531 -7.921875 5.53125 -8.171875 L 7.234375 -11.390625 C 7.410156 -11.765625 7.601562 -12.023438 7.8125 -12.171875 C 8.019531 -12.328125 8.335938 -12.40625 8.765625 -12.40625 C 9.242188 -12.40625 9.800781 -12.375 10.4375 -12.3125 L 10.609375 -12.109375 L 8.40625 -7.96875 C 8.125 -7.414062 7.785156 -6.976562 7.390625 -6.65625 C 7.960938 -6.539062 8.390625 -6.3125 8.671875 -5.96875 C 8.953125 -5.632812 9.1875 -5.1875 9.375 -4.625 L 10.109375 -2.390625 C 10.210938 -2.117188 10.285156 -1.914062 10.328125 -1.78125 C 10.378906 -1.644531 10.5 -1.421875 10.6875 -1.109375 C 10.769531 -0.992188 10.890625 -0.859375 11.046875 -0.703125 Z M 11.046875 -0.703125 "/></g></g></g><g fill="#ffffff" fill-opacity="1"><g transform="translate(3.539062, 42.82)"><g><path d="M 0.171875 -0.65625 C 0.191406 -0.894531 0.265625 -1.132812 0.390625 -1.375 C 0.515625 -1.613281 0.664062 -1.8125 0.84375 -1.96875 C 1.632812 -1.488281 2.378906 -1.25 3.078125 -1.25 C 3.390625 -1.25 3.613281 -1.316406 3.75 -1.453125 C 3.894531 -1.597656 3.96875 -1.773438 3.96875 -1.984375 C 3.96875 -2.328125 3.738281 -2.597656 3.28125 -2.796875 L 1.984375 -3.34375 C 1.472656 -3.570312 1.082031 -3.84375 0.8125 -4.15625 C 0.539062 -4.476562 0.40625 -4.882812 0.40625 -5.375 C 0.40625 -5.71875 0.472656 -6.023438 0.609375 -6.296875 C 0.742188 -6.578125 0.929688 -6.820312 1.171875 -7.03125 C 1.421875 -7.238281 1.710938 -7.394531 2.046875 -7.5 C 2.390625 -7.613281 2.765625 -7.671875 3.171875 -7.671875 C 3.992188 -7.671875 4.828125 -7.460938 5.671875 -7.046875 C 5.628906 -6.484375 5.429688 -6.046875 5.078125 -5.734375 C 4.328125 -6.085938 3.664062 -6.265625 3.09375 -6.265625 C 2.800781 -6.265625 2.582031 -6.195312 2.4375 -6.0625 C 2.289062 -5.9375 2.21875 -5.789062 2.21875 -5.625 C 2.21875 -5.332031 2.429688 -5.097656 2.859375 -4.921875 L 4.1875 -4.359375 C 4.738281 -4.128906 5.148438 -3.832031 5.421875 -3.46875 C 5.703125 -3.101562 5.84375 -2.675781 5.84375 -2.1875 C 5.84375 -1.84375 5.78125 -1.523438 5.65625 -1.234375 C 5.53125 -0.953125 5.34375 -0.707031 5.09375 -0.5 C 4.851562 -0.289062 4.546875 -0.125 4.171875 0 C 3.804688 0.113281 3.378906 0.171875 2.890625 0.171875 C 1.941406 0.171875 1.035156 -0.101562 0.171875 -0.65625 Z M 0.171875 -0.65625 "/></g></g></g><g fill="#ffffff" fill-opacity="1"><g transform="translate(9.661731, 42.82)"><g><path d="M 2.65625 -1.578125 C 2.457031 -1.578125 2.3125 -1.578125 2.21875 -1.578125 L 1.75 0.015625 C 1.570312 0.0546875 1.328125 0.078125 1.015625 0.078125 C 0.660156 0.078125 0.375 0.0351562 0.15625 -0.046875 L 0.09375 -0.125 L 2.515625 -7.515625 C 2.804688 -7.554688 3.140625 -7.578125 3.515625 -7.578125 C 3.953125 -7.578125 4.296875 -7.550781 4.546875 -7.5 L 6.9375 -0.109375 C 6.675781 0.0234375 6.382812 0.09375 6.0625 0.09375 C 5.675781 0.09375 5.40625 0.03125 5.25 -0.09375 C 5.101562 -0.226562 4.972656 -0.484375 4.859375 -0.859375 L 4.65625 -1.578125 C 4.5625 -1.578125 4.414062 -1.578125 4.21875 -1.578125 Z M 2.625 -2.953125 L 3.0625 -2.96875 L 3.875 -2.96875 C 3.90625 -2.96875 3.96875 -2.960938 4.0625 -2.953125 C 4.15625 -2.953125 4.222656 -2.953125 4.265625 -2.953125 L 4.078125 -3.640625 C 3.898438 -4.253906 3.695312 -5.007812 3.46875 -5.90625 L 3.40625 -5.90625 C 3.351562 -5.59375 3.175781 -4.894531 2.875 -3.8125 Z M 2.625 -2.953125 "/></g></g></g><g fill="#ffffff" fill-opacity="1"><g transform="translate(16.674774, 42.82)"><g><path d="M 3.6875 -6.0625 L 3.703125 -5.25 L 3.703125 0 C 3.453125 0.0390625 3.148438 0.0625 2.796875 0.0625 C 2.453125 0.0625 2.164062 0.0390625 1.9375 0 L 1.9375 -6.0625 L 1.234375 -6.046875 L 0.09375 -6.046875 C 0.0507812 -6.265625 0.03125 -6.507812 0.03125 -6.78125 C 0.03125 -7.050781 0.0507812 -7.296875 0.09375 -7.515625 L 5.546875 -7.515625 C 5.597656 -7.328125 5.625 -7.09375 5.625 -6.8125 C 5.625 -6.539062 5.550781 -6.34375 5.40625 -6.21875 C 5.257812 -6.101562 5.023438 -6.046875 4.703125 -6.046875 L 4.390625 -6.046875 L 3.703125 -6.0625 Z M 3.6875 -6.0625 "/></g></g></g><g fill="#ffffff" fill-opacity="1"><g transform="translate(22.28081, 42.82)"><g><path d="M 2.65625 -1.578125 C 2.457031 -1.578125 2.3125 -1.578125 2.21875 -1.578125 L 1.75 0.015625 C 1.570312 0.0546875 1.328125 0.078125 1.015625 0.078125 C 0.660156 0.078125 0.375 0.0351562 0.15625 -0.046875 L 0.09375 -0.125 L 2.515625 -7.515625 C 2.804688 -7.554688 3.140625 -7.578125 3.515625 -7.578125 C 3.953125 -7.578125 4.296875 -7.550781 4.546875 -7.5 L 6.9375 -0.109375 C 6.675781 0.0234375 6.382812 0.09375 6.0625 0.09375 C 5.675781 0.09375 5.40625 0.03125 5.25 -0.09375 C 5.101562 -0.226562 4.972656 -0.484375 4.859375 -0.859375 L 4.65625 -1.578125 C 4.5625 -1.578125 4.414062 -1.578125 4.21875 -1.578125 Z M 2.625 -2.953125 L 3.0625 -2.96875 L 3.875 -2.96875 C 3.90625 -2.96875 3.96875 -2.960938 4.0625 -2.953125 C 4.15625 -2.953125 4.222656 -2.953125 4.265625 -2.953125 L 4.078125 -3.640625 C 3.898438 -4.253906 3.695312 -5.007812 3.46875 -5.90625 L 3.40625 -5.90625 C 3.351562 -5.59375 3.175781 -4.894531 2.875 -3.8125 Z M 2.625 -2.953125 "/></g></g></g><g fill="#ffffff" fill-opacity="1"><g transform="translate(29.293853, 42.82)"><g><path d="M 6.75 -7.59375 L 6.828125 -7.515625 L 6.828125 -0.03125 C 6.535156 0.03125 6.1875 0.0625 5.78125 0.0625 C 5.382812 0.0625 5.035156 0.0390625 4.734375 0 L 3 -3.9375 C 2.789062 -4.382812 2.582031 -4.898438 2.375 -5.484375 L 2.34375 -5.484375 C 2.425781 -4.410156 2.46875 -3.3125 2.46875 -2.1875 L 2.46875 0 C 2.25 0.0390625 1.976562 0.0625 1.65625 0.0625 C 1.332031 0.0625 1.0625 0.0390625 0.84375 0 L 0.84375 -7.484375 C 1.113281 -7.546875 1.445312 -7.578125 1.84375 -7.578125 C 2.238281 -7.578125 2.585938 -7.554688 2.890625 -7.515625 L 4.59375 -3.59375 C 4.90625 -2.863281 5.132812 -2.300781 5.28125 -1.90625 L 5.328125 -1.9375 C 5.234375 -2.957031 5.1875 -4.039062 5.1875 -5.1875 L 5.1875 -6.515625 C 5.1875 -6.898438 5.265625 -7.175781 5.421875 -7.34375 C 5.578125 -7.507812 5.828125 -7.59375 6.171875 -7.59375 Z M 6.75 -7.59375 "/></g></g></g><g fill="#ffffff" fill-opacity="1"><g transform="translate(36.944445, 42.82)"><g><path d="M 3.625 -1.484375 L 5.515625 -1.484375 C 5.515625 -1.191406 5.492188 -0.941406 5.453125 -0.734375 C 5.421875 -0.523438 5.304688 -0.34375 5.109375 -0.1875 C 4.910156 -0.0390625 4.648438 0.03125 4.328125 0.03125 L 1.84375 0.03125 C 1.53125 0.03125 1.28125 -0.0546875 1.09375 -0.234375 C 0.914062 -0.421875 0.828125 -0.671875 0.828125 -0.984375 L 0.828125 -7.515625 L 0.90625 -7.59375 L 1.546875 -7.59375 C 2.234375 -7.59375 2.578125 -7.21875 2.578125 -6.46875 L 2.578125 -1.4375 C 2.898438 -1.46875 3.25 -1.484375 3.625 -1.484375 Z M 3.625 -1.484375 "/></g></g></g><g fill="#ffffff" fill-opacity="1"><g transform="translate(42.682387, 42.82)"><g><path d="M 2.65625 -1.578125 C 2.457031 -1.578125 2.3125 -1.578125 2.21875 -1.578125 L 1.75 0.015625 C 1.570312 0.0546875 1.328125 0.078125 1.015625 0.078125 C 0.660156 0.078125 0.375 0.0351562 0.15625 -0.046875 L 0.09375 -0.125 L 2.515625 -7.515625 C 2.804688 -7.554688 3.140625 -7.578125 3.515625 -7.578125 C 3.953125 -7.578125 4.296875 -7.550781 4.546875 -7.5 L 6.9375 -0.109375 C 6.675781 0.0234375 6.382812 0.09375 6.0625 0.09375 C 5.675781 0.09375 5.40625 0.03125 5.25 -0.09375 C 5.101562 -0.226562 4.972656 -0.484375 4.859375 -0.859375 L 4.65625 -1.578125 C 4.5625 -1.578125 4.414062 -1.578125 4.21875 -1.578125 Z M 2.625 -2.953125 L 3.0625 -2.96875 L 3.875 -2.96875 C 3.90625 -2.96875 3.96875 -2.960938 4.0625 -2.953125 C 4.15625 -2.953125 4.222656 -2.953125 4.265625 -2.953125 L 4.078125 -3.640625 C 3.898438 -4.253906 3.695312 -5.007812 3.46875 -5.90625 L 3.40625 -5.90625 C 3.351562 -5.59375 3.175781 -4.894531 2.875 -3.8125 Z M 2.625 -2.953125 "/></g></g></g><g fill="#ffffff" fill-opacity="1"><g transform="translate(49.695429, 42.82)"><g><path d="M 6.21875 -5.1875 C 6.21875 -4.945312 6.179688 -4.71875 6.109375 -4.5 C 6.035156 -4.289062 5.9375 -4.097656 5.8125 -3.921875 C 5.695312 -3.742188 5.554688 -3.59375 5.390625 -3.46875 C 5.222656 -3.34375 5.054688 -3.242188 4.890625 -3.171875 C 5.265625 -3.035156 5.546875 -2.703125 5.734375 -2.171875 L 6.0625 -1.234375 C 6.1875 -0.867188 6.367188 -0.597656 6.609375 -0.421875 C 6.503906 -0.273438 6.335938 -0.148438 6.109375 -0.046875 C 5.890625 0.046875 5.648438 0.09375 5.390625 0.09375 C 5.128906 0.09375 4.921875 0.0195312 4.765625 -0.125 C 4.617188 -0.28125 4.484375 -0.539062 4.359375 -0.90625 L 3.96875 -2.0625 C 3.882812 -2.28125 3.773438 -2.445312 3.640625 -2.5625 C 3.503906 -2.6875 3.300781 -2.75 3.03125 -2.75 L 2.578125 -2.75 L 2.578125 0 C 2.347656 0.0390625 2.054688 0.0625 1.703125 0.0625 C 1.347656 0.0625 1.0625 0.0390625 0.84375 0 L 0.84375 -7.453125 L 0.90625 -7.53125 C 1.550781 -7.550781 2.085938 -7.5625 2.515625 -7.5625 C 2.953125 -7.570312 3.296875 -7.578125 3.546875 -7.578125 C 3.953125 -7.578125 4.316406 -7.523438 4.640625 -7.421875 C 4.972656 -7.328125 5.253906 -7.179688 5.484375 -6.984375 C 5.722656 -6.785156 5.90625 -6.535156 6.03125 -6.234375 C 6.15625 -5.929688 6.21875 -5.582031 6.21875 -5.1875 Z M 2.578125 -6.265625 L 2.578125 -4.109375 C 2.910156 -4.109375 3.191406 -4.113281 3.421875 -4.125 C 3.660156 -4.132812 3.851562 -4.175781 4 -4.25 C 4.144531 -4.320312 4.253906 -4.425781 4.328125 -4.5625 C 4.398438 -4.707031 4.4375 -4.914062 4.4375 -5.1875 C 4.4375 -5.894531 4.09375 -6.25 3.40625 -6.25 C 3.226562 -6.25 3.070312 -6.25 2.9375 -6.25 C 2.800781 -6.25 2.679688 -6.253906 2.578125 -6.265625 Z M 2.578125 -6.265625 "/></g></g></g></svg>