<?xml version="1.0" encoding="utf-8"?>
<!-- Generator: Adobe Illustrator 28.1.0, SVG Export Plug-In . SVG Version: 6.00 Build 0)  -->
<svg version="1.1" id="Layer_1" xmlns="http://www.w3.org/2000/svg" xmlns:xlink="http://www.w3.org/1999/xlink" x="0px" y="0px"
	 viewBox="0 0 80 80" style="enable-background:new 0 0 80 80;" xml:space="preserve">
<style type="text/css">
	.st0{fill:#FFFFFF;}
	.st1{fill:#E8265C;}
</style>
<rect x="0" class="st0" width="80" height="80"/>
<g>
	<g transform="translate(5.567254, 27.347164)">
		<g>
			<path class="st1" d="M6.5-4.5c0-0.9,0.2-1.7,0.7-2.5C7.7-7.8,8.3-8.4,9-8.8c0.8-0.4,1.6-0.7,2.5-0.7c0.9,0,1.7,0.2,2.4,0.7
				c0.8,0.4,1.4,1,1.8,1.8c0.5,0.8,0.7,1.6,0.7,2.5c0,0.9-0.2,1.7-0.7,2.5c-0.4,0.8-1,1.4-1.8,1.8c-0.7,0.5-1.6,0.7-2.5,0.7
				c-0.9,0-1.7-0.2-2.5-0.7C8.2-0.7,7.6-1.3,7.2-2C6.8-2.8,6.5-3.6,6.5-4.5z M23.1-9l-8.4,20.3h-3.1L19.9-9H23.1z M13.4-4.5
				c0-0.5-0.2-0.9-0.6-1.3c-0.4-0.4-0.8-0.6-1.3-0.6c-0.5,0-1,0.2-1.4,0.6C9.8-5.5,9.6-5,9.6-4.5c0,0.5,0.2,1,0.6,1.3
				c0.4,0.4,0.8,0.6,1.3,0.6c0.5,0,0.9-0.2,1.3-0.6C13.2-3.5,13.4-4,13.4-4.5z M18.2,6.7c0-0.9,0.2-1.8,0.7-2.5
				c0.5-0.8,1.1-1.4,1.8-1.8c0.8-0.4,1.6-0.7,2.5-0.7c0.9,0,1.7,0.2,2.4,0.7c0.8,0.4,1.4,1,1.8,1.8c0.5,0.8,0.7,1.6,0.7,2.5
				c0,0.9-0.2,1.7-0.7,2.5c-0.4,0.8-1,1.4-1.8,1.8c-0.8,0.5-1.6,0.7-2.5,0.7c-0.9,0-1.7-0.2-2.5-0.7c-0.8-0.4-1.4-1-1.8-1.8
				C18.4,8.4,18.2,7.5,18.2,6.7z M25,6.7c0-0.5-0.2-1-0.6-1.3c-0.4-0.4-0.8-0.6-1.3-0.6c-0.5,0-1,0.2-1.4,0.6
				c-0.4,0.4-0.6,0.8-0.6,1.3c0,0.5,0.2,1,0.6,1.3c0.4,0.4,0.8,0.6,1.3,0.6c0.5,0,0.9-0.2,1.3-0.6C24.9,7.6,25,7.2,25,6.7z"/>
		</g>
	</g>
</g>
<g>
	<g transform="translate(24.991684, 27.347164)">
		<g>
			<path class="st1" d="M15.9,3.1c1.1-1.2,2-2.3,2.6-3.3c0.6-1,0.9-1.9,0.9-2.7c0-0.6-0.2-1.1-0.5-1.4c-0.3-0.4-0.8-0.6-1.4-0.6
				c-1.5,0-2.2,1.1-2.3,3.2h-4.9c0-1.6,0.3-2.9,0.9-4.1c0.6-1.2,1.5-2.1,2.6-2.7c1.1-0.6,2.4-0.9,3.9-0.9c1.4,0,2.5,0.3,3.6,0.8
				c1,0.5,1.9,1.2,2.4,2.2c0.6,0.9,0.9,1.9,0.9,2.9c0,1.7-0.5,3.3-1.5,4.9c-1,1.6-2.8,3.4-5.2,5.5h6.9v4.4H10.5v-4
				C13,5.6,14.8,4.2,15.9,3.1z"/>
		</g>
	</g>
</g>
<g>
	<g transform="translate(38.853003, 27.347164)">
		<g>
			<path class="st1" d="M21.1-2.5c1.4,0,2.5,0.3,3.6,1c1,0.6,1.8,1.5,2.3,2.5c0.5,1,0.8,2.2,0.8,3.3c0,1.3-0.3,2.5-1,3.6
				c-0.6,1.1-1.5,2-2.7,2.7c-1.2,0.7-2.5,1-4.1,1c-2,0-3.7-0.5-5.1-1.5c-1.4-1-2.3-2.5-2.6-4.3h5.2c0.3,0.4,0.6,0.7,1,0.9
				C18.9,6.9,19.4,7,19.9,7c0.7,0,1.4-0.3,1.9-0.8c0.5-0.5,0.8-1.1,0.8-1.9c0-0.8-0.3-1.4-0.8-1.9c-0.5-0.5-1.2-0.8-2-0.8
				c-1.3,0-2.1,0.6-2.7,1.8l-4.2-1L14.8-9H26v4.4h-7.2l-0.4,2.8c0.4-0.2,0.8-0.4,1.3-0.5C20-2.5,20.5-2.5,21.1-2.5z"/>
		</g>
	</g>
</g>
<g>
	<g transform="translate(2.216805, 46.002803)">
		<g>
			<path d="M9.3,2.2v12.4H6.1V2.2H9.3z M9-1.6v2.5H6.4v-2.5H9z"/>
		</g>
	</g>
</g>
<g>
	<g transform="translate(6.513156, 46.002803)">
		<g>
			<path d="M9.9,14.6h-3V2.2h2.7l4.8,7.8l-0.1-7.8h3v12.4h-2.7L9.8,7L9.9,14.6z"/>
		</g>
	</g>
</g>
<g>
	<g transform="translate(16.991893, 46.002803)">
		<g>
			<path d="M12.8,2.2c1.5,0,2.7,0.3,3.6,0.8c0.9,0.5,1.6,1.2,2.1,2.2c0.5,0.9,0.8,2,0.8,3.3c0,2-0.6,3.5-1.7,4.6
				C16.5,14,15,14.6,13,14.6H8.6V2.2H12.8z M16.2,8.4c0-1.1-0.3-1.9-0.8-2.5C14.9,5.3,14.1,5,13.2,5h-1.4v6.8h1.4
				c0.9,0,1.6-0.3,2.2-0.9C15.9,10.3,16.2,9.5,16.2,8.4z"/>
		</g>
	</g>
</g>
<g>
	<g transform="translate(27.229569, 46.002803)">
		<g>
			<path d="M13.8,2.2v12.4h-3.2V2.2H13.8z M13.5-1.6v2.5h-2.7v-2.5H13.5z"/>
		</g>
	</g>
</g>
<g>
	<g transform="translate(31.525921, 46.002803)">
		<g>
			<path d="M14.4,10.6v4h-3V2.2h4.1c1.3,0,2.2,0.2,2.9,0.5c0.7,0.3,1.2,0.8,1.7,1.5c0.4,0.7,0.6,1.5,0.6,2.3c0,1-0.3,1.8-0.8,2.6
				c-0.6,0.7-1.3,1.2-2.2,1.3l3.4,4.2h-3.6L14.4,10.6L14.4,10.6z M17.6,6.6c0-0.5-0.2-0.9-0.6-1.2C16.7,5.1,16.2,5,15.6,5h-1.2v3.4
				h1.2c0.6,0,1.1-0.1,1.5-0.4C17.5,7.7,17.6,7.2,17.6,6.6z"/>
		</g>
	</g>
</g>
<g>
	<g transform="translate(40.501602, 46.002803)">
		<g>
			<path d="M16.2,2.2v12.4H13V2.2H16.2z M15.9-1.6v2.5h-2.7v-2.5H15.9z"/>
		</g>
	</g>
</g>
<g>
	<g transform="translate(44.797954, 46.002803)">
		<g>
			<path d="M24,5.3l-2.7,9.3h-2.1l-2.7-9.4l0.1,9.4h-2.9V2.2h4.1l2.5,8.2h0l2.4-8.2h4.1v12.4H24L24,5.3L24,5.3z"/>
		</g>
	</g>
</g>
</svg>
