<svg xmlns="http://www.w3.org/2000/svg" xmlns:xlink="http://www.w3.org/1999/xlink" width="80" zoomAndPan="magnify" viewBox="0 0 60 60" height="80" preserveAspectRatio="xMidYMid meet" version="1.0"><defs><g/></defs><rect x="-6" width="72" fill="#ffffff" y="-6" height="72" fill-opacity="1"/><rect x="-6" width="72" fill="#ffffff" y="-6" height="72" fill-opacity="1"/><rect x="-6" width="72" fill="#000000" y="-6" height="72" fill-opacity="1"/><g fill="#ffffff" fill-opacity="1"><g transform="translate(10.851562, 28.57)"><g><path d="M 5.90625 -9.25 L 7.109375 -12.296875 C 7.421875 -12.367188 7.820312 -12.40625 8.3125 -12.40625 C 8.84375 -12.40625 9.300781 -12.332031 9.6875 -12.1875 L 9.8125 -12.046875 L 6.3125 -3.78125 L 6.3125 0 C 5.945312 0.0703125 5.46875 0.109375 4.875 0.109375 C 4.289062 0.109375 3.8125 0.0703125 3.4375 0 L 3.4375 -3.859375 L -0.03125 -11.953125 C 0.519531 -12.273438 1.046875 -12.4375 1.546875 -12.4375 C 2.046875 -12.4375 2.40625 -12.347656 2.625 -12.171875 C 2.851562 -12.003906 3.050781 -11.707031 3.21875 -11.28125 L 4.09375 -9.140625 C 4.394531 -8.367188 4.660156 -7.507812 4.890625 -6.5625 L 5 -6.5625 C 5.195312 -7.320312 5.5 -8.21875 5.90625 -9.25 Z M 5.90625 -9.25 "/></g></g></g><g fill="#ffffff" fill-opacity="1"><g transform="translate(20.607535, 28.57)"><g><path d="M 4.1875 -3.640625 L 4.171875 -2.34375 L 4.171875 -2.328125 C 4.722656 -2.347656 5.171875 -2.359375 5.515625 -2.359375 L 9.6875 -2.359375 C 9.6875 -1.910156 9.664062 -1.566406 9.625 -1.328125 C 9.476562 -0.410156 8.867188 0.046875 7.796875 0.046875 L 3 0.046875 C 2.488281 0.046875 2.082031 -0.0976562 1.78125 -0.390625 C 1.488281 -0.691406 1.34375 -1.101562 1.34375 -1.625 L 1.34375 -12.171875 L 1.46875 -12.296875 L 9.234375 -12.296875 C 9.304688 -11.941406 9.34375 -11.5625 9.34375 -11.15625 C 9.34375 -10.75 9.257812 -10.320312 9.09375 -9.875 L 4.171875 -9.875 L 4.1875 -8.59375 L 4.1875 -7.328125 C 4.5 -7.335938 4.910156 -7.34375 5.421875 -7.34375 L 8.171875 -7.34375 C 8.273438 -7.007812 8.328125 -6.625 8.328125 -6.1875 C 8.328125 -5.757812 8.273438 -5.363281 8.171875 -5 L 4.1875 -5 Z M 4.1875 -3.640625 "/></g></g></g><g fill="#ffffff" fill-opacity="1"><g transform="translate(30.9215, 28.57)"><g><path d="M 11.046875 -12.421875 L 11.171875 -12.296875 L 11.171875 -0.046875 C 10.691406 0.0546875 10.125 0.109375 9.46875 0.109375 C 8.820312 0.109375 8.242188 0.0703125 7.734375 0 L 4.90625 -6.4375 C 4.570312 -7.175781 4.234375 -8.023438 3.890625 -8.984375 L 3.828125 -8.96875 C 3.972656 -7.21875 4.046875 -5.421875 4.046875 -3.578125 L 4.046875 0 C 3.671875 0.0703125 3.21875 0.109375 2.6875 0.109375 C 2.164062 0.109375 1.726562 0.0703125 1.375 0 L 1.375 -12.234375 C 1.820312 -12.347656 2.367188 -12.40625 3.015625 -12.40625 C 3.660156 -12.40625 4.234375 -12.367188 4.734375 -12.296875 L 7.53125 -5.875 C 8.03125 -4.6875 8.398438 -3.769531 8.640625 -3.125 L 8.71875 -3.171875 C 8.570312 -4.835938 8.5 -6.609375 8.5 -8.484375 L 8.5 -10.671875 C 8.5 -11.296875 8.625 -11.742188 8.875 -12.015625 C 9.125 -12.285156 9.53125 -12.421875 10.09375 -12.421875 Z M 11.046875 -12.421875 "/></g></g></g><g fill="#ffffff" fill-opacity="1"><g transform="translate(43.449461, 28.57)"><g><path d="M 1.40625 0 L 1.40625 -12.296875 C 1.78125 -12.367188 2.257812 -12.40625 2.84375 -12.40625 C 3.425781 -12.40625 3.910156 -12.367188 4.296875 -12.296875 L 4.296875 0 C 3.910156 0.0703125 3.425781 0.109375 2.84375 0.109375 C 2.257812 0.109375 1.78125 0.0703125 1.40625 0 Z M 1.40625 0 "/></g></g></g><g fill="#ffffff" fill-opacity="1"><g transform="translate(4.019531, 42.82)"><g><path d="M 3.734375 -4.265625 L 5.46875 -4.28125 C 6.25 -4.28125 6.640625 -3.910156 6.640625 -3.171875 L 6.640625 -0.28125 C 5.691406 0.0195312 4.695312 0.171875 3.65625 0.171875 C 3.125 0.171875 2.65625 0.0820312 2.25 -0.09375 C 1.84375 -0.269531 1.5 -0.523438 1.21875 -0.859375 C 0.945312 -1.191406 0.738281 -1.597656 0.59375 -2.078125 C 0.457031 -2.554688 0.390625 -3.097656 0.390625 -3.703125 C 0.390625 -4.367188 0.488281 -4.945312 0.6875 -5.4375 C 0.882812 -5.9375 1.144531 -6.351562 1.46875 -6.6875 C 1.789062 -7.019531 2.164062 -7.265625 2.59375 -7.421875 C 3.019531 -7.585938 3.460938 -7.671875 3.921875 -7.671875 C 4.878906 -7.671875 5.773438 -7.410156 6.609375 -6.890625 C 6.597656 -6.765625 6.566406 -6.640625 6.515625 -6.515625 C 6.472656 -6.398438 6.414062 -6.285156 6.34375 -6.171875 C 6.28125 -6.054688 6.203125 -5.953125 6.109375 -5.859375 C 6.015625 -5.773438 5.921875 -5.695312 5.828125 -5.625 C 5.222656 -6.019531 4.609375 -6.21875 3.984375 -6.21875 C 2.785156 -6.21875 2.1875 -5.382812 2.1875 -3.71875 C 2.1875 -2.050781 2.800781 -1.21875 4.03125 -1.21875 C 4.195312 -1.21875 4.359375 -1.222656 4.515625 -1.234375 C 4.671875 -1.253906 4.828125 -1.28125 4.984375 -1.3125 L 4.984375 -2.046875 C 4.984375 -2.210938 4.984375 -2.359375 4.984375 -2.484375 C 4.992188 -2.609375 5 -2.71875 5 -2.8125 L 4.453125 -2.8125 C 4.140625 -2.8125 3.921875 -2.867188 3.796875 -2.984375 C 3.679688 -3.109375 3.625 -3.296875 3.625 -3.546875 C 3.625 -3.773438 3.660156 -4.015625 3.734375 -4.265625 Z M 3.734375 -4.265625 "/></g></g></g><g fill="#ffffff" fill-opacity="1"><g transform="translate(11.208446, 42.82)"><g><path d="M 2.5625 -2.21875 L 2.546875 -1.4375 L 2.546875 -1.421875 C 2.890625 -1.429688 3.160156 -1.4375 3.359375 -1.4375 L 5.921875 -1.4375 C 5.921875 -1.164062 5.910156 -0.957031 5.890625 -0.8125 C 5.796875 -0.25 5.421875 0.03125 4.765625 0.03125 L 1.84375 0.03125 C 1.519531 0.03125 1.269531 -0.0546875 1.09375 -0.234375 C 0.914062 -0.421875 0.828125 -0.671875 0.828125 -0.984375 L 0.828125 -7.4375 L 0.90625 -7.515625 L 5.640625 -7.515625 C 5.679688 -7.296875 5.703125 -7.0625 5.703125 -6.8125 C 5.703125 -6.570312 5.65625 -6.3125 5.5625 -6.03125 L 2.546875 -6.03125 L 2.5625 -5.25 L 2.5625 -4.484375 C 2.75 -4.484375 3 -4.484375 3.3125 -4.484375 L 5 -4.484375 C 5.0625 -4.285156 5.09375 -4.050781 5.09375 -3.78125 C 5.09375 -3.519531 5.0625 -3.28125 5 -3.0625 L 2.5625 -3.0625 Z M 2.5625 -2.21875 "/></g></g></g><g fill="#ffffff" fill-opacity="1"><g transform="translate(17.506988, 42.82)"><g><path d="M 3.625 -1.484375 L 5.515625 -1.484375 C 5.515625 -1.191406 5.492188 -0.941406 5.453125 -0.734375 C 5.421875 -0.523438 5.304688 -0.34375 5.109375 -0.1875 C 4.910156 -0.0390625 4.648438 0.03125 4.328125 0.03125 L 1.84375 0.03125 C 1.53125 0.03125 1.28125 -0.0546875 1.09375 -0.234375 C 0.914062 -0.421875 0.828125 -0.671875 0.828125 -0.984375 L 0.828125 -7.515625 L 0.90625 -7.59375 L 1.546875 -7.59375 C 2.234375 -7.59375 2.578125 -7.21875 2.578125 -6.46875 L 2.578125 -1.4375 C 2.898438 -1.46875 3.25 -1.484375 3.625 -1.484375 Z M 3.625 -1.484375 "/></g></g></g><g fill="#ffffff" fill-opacity="1"><g transform="translate(23.244929, 42.82)"><g><path d="M 2.5625 -2.21875 L 2.546875 -1.4375 L 2.546875 -1.421875 C 2.890625 -1.429688 3.160156 -1.4375 3.359375 -1.4375 L 5.921875 -1.4375 C 5.921875 -1.164062 5.910156 -0.957031 5.890625 -0.8125 C 5.796875 -0.25 5.421875 0.03125 4.765625 0.03125 L 1.84375 0.03125 C 1.519531 0.03125 1.269531 -0.0546875 1.09375 -0.234375 C 0.914062 -0.421875 0.828125 -0.671875 0.828125 -0.984375 L 0.828125 -7.4375 L 0.90625 -7.515625 L 5.640625 -7.515625 C 5.679688 -7.296875 5.703125 -7.0625 5.703125 -6.8125 C 5.703125 -6.570312 5.65625 -6.3125 5.5625 -6.03125 L 2.546875 -6.03125 L 2.5625 -5.25 L 2.5625 -4.484375 C 2.75 -4.484375 3 -4.484375 3.3125 -4.484375 L 5 -4.484375 C 5.0625 -4.285156 5.09375 -4.050781 5.09375 -3.78125 C 5.09375 -3.519531 5.0625 -3.28125 5 -3.0625 L 2.5625 -3.0625 Z M 2.5625 -2.21875 "/></g></g></g><g fill="#ffffff" fill-opacity="1"><g transform="translate(29.543471, 42.82)"><g><path d="M 6.75 -7.59375 L 6.828125 -7.515625 L 6.828125 -0.03125 C 6.535156 0.03125 6.1875 0.0625 5.78125 0.0625 C 5.382812 0.0625 5.035156 0.0390625 4.734375 0 L 3 -3.9375 C 2.789062 -4.382812 2.582031 -4.898438 2.375 -5.484375 L 2.34375 -5.484375 C 2.425781 -4.410156 2.46875 -3.3125 2.46875 -2.1875 L 2.46875 0 C 2.25 0.0390625 1.976562 0.0625 1.65625 0.0625 C 1.332031 0.0625 1.0625 0.0390625 0.84375 0 L 0.84375 -7.484375 C 1.113281 -7.546875 1.445312 -7.578125 1.84375 -7.578125 C 2.238281 -7.578125 2.585938 -7.554688 2.890625 -7.515625 L 4.59375 -3.59375 C 4.90625 -2.863281 5.132812 -2.300781 5.28125 -1.90625 L 5.328125 -1.9375 C 5.234375 -2.957031 5.1875 -4.039062 5.1875 -5.1875 L 5.1875 -6.515625 C 5.1875 -6.898438 5.265625 -7.175781 5.421875 -7.34375 C 5.578125 -7.507812 5.828125 -7.59375 6.171875 -7.59375 Z M 6.75 -7.59375 "/></g></g></g><g fill="#ffffff" fill-opacity="1"><g transform="translate(37.194063, 42.82)"><g><path d="M 3.625 -1.484375 L 5.515625 -1.484375 C 5.515625 -1.191406 5.492188 -0.941406 5.453125 -0.734375 C 5.421875 -0.523438 5.304688 -0.34375 5.109375 -0.1875 C 4.910156 -0.0390625 4.648438 0.03125 4.328125 0.03125 L 1.84375 0.03125 C 1.53125 0.03125 1.28125 -0.0546875 1.09375 -0.234375 C 0.914062 -0.421875 0.828125 -0.671875 0.828125 -0.984375 L 0.828125 -7.515625 L 0.90625 -7.59375 L 1.546875 -7.59375 C 2.234375 -7.59375 2.578125 -7.21875 2.578125 -6.46875 L 2.578125 -1.4375 C 2.898438 -1.46875 3.25 -1.484375 3.625 -1.484375 Z M 3.625 -1.484375 "/></g></g></g><g fill="#ffffff" fill-opacity="1"><g transform="translate(42.932005, 42.82)"><g><path d="M 2.5625 -2.21875 L 2.546875 -1.4375 L 2.546875 -1.421875 C 2.890625 -1.429688 3.160156 -1.4375 3.359375 -1.4375 L 5.921875 -1.4375 C 5.921875 -1.164062 5.910156 -0.957031 5.890625 -0.8125 C 5.796875 -0.25 5.421875 0.03125 4.765625 0.03125 L 1.84375 0.03125 C 1.519531 0.03125 1.269531 -0.0546875 1.09375 -0.234375 C 0.914062 -0.421875 0.828125 -0.671875 0.828125 -0.984375 L 0.828125 -7.4375 L 0.90625 -7.515625 L 5.640625 -7.515625 C 5.679688 -7.296875 5.703125 -7.0625 5.703125 -6.8125 C 5.703125 -6.570312 5.65625 -6.3125 5.5625 -6.03125 L 2.546875 -6.03125 L 2.5625 -5.25 L 2.5625 -4.484375 C 2.75 -4.484375 3 -4.484375 3.3125 -4.484375 L 5 -4.484375 C 5.0625 -4.285156 5.09375 -4.050781 5.09375 -3.78125 C 5.09375 -3.519531 5.0625 -3.28125 5 -3.0625 L 2.5625 -3.0625 Z M 2.5625 -2.21875 "/></g></g></g><g fill="#ffffff" fill-opacity="1"><g transform="translate(49.230547, 42.82)"><g><path d="M 6.21875 -5.1875 C 6.21875 -4.945312 6.179688 -4.71875 6.109375 -4.5 C 6.035156 -4.289062 5.9375 -4.097656 5.8125 -3.921875 C 5.695312 -3.742188 5.554688 -3.59375 5.390625 -3.46875 C 5.222656 -3.34375 5.054688 -3.242188 4.890625 -3.171875 C 5.265625 -3.035156 5.546875 -2.703125 5.734375 -2.171875 L 6.0625 -1.234375 C 6.1875 -0.867188 6.367188 -0.597656 6.609375 -0.421875 C 6.503906 -0.273438 6.335938 -0.148438 6.109375 -0.046875 C 5.890625 0.046875 5.648438 0.09375 5.390625 0.09375 C 5.128906 0.09375 4.921875 0.0195312 4.765625 -0.125 C 4.617188 -0.28125 4.484375 -0.539062 4.359375 -0.90625 L 3.96875 -2.0625 C 3.882812 -2.28125 3.773438 -2.445312 3.640625 -2.5625 C 3.503906 -2.6875 3.300781 -2.75 3.03125 -2.75 L 2.578125 -2.75 L 2.578125 0 C 2.347656 0.0390625 2.054688 0.0625 1.703125 0.0625 C 1.347656 0.0625 1.0625 0.0390625 0.84375 0 L 0.84375 -7.453125 L 0.90625 -7.53125 C 1.550781 -7.550781 2.085938 -7.5625 2.515625 -7.5625 C 2.953125 -7.570312 3.296875 -7.578125 3.546875 -7.578125 C 3.953125 -7.578125 4.316406 -7.523438 4.640625 -7.421875 C 4.972656 -7.328125 5.253906 -7.179688 5.484375 -6.984375 C 5.722656 -6.785156 5.90625 -6.535156 6.03125 -6.234375 C 6.15625 -5.929688 6.21875 -5.582031 6.21875 -5.1875 Z M 2.578125 -6.265625 L 2.578125 -4.109375 C 2.910156 -4.109375 3.191406 -4.113281 3.421875 -4.125 C 3.660156 -4.132812 3.851562 -4.175781 4 -4.25 C 4.144531 -4.320312 4.253906 -4.425781 4.328125 -4.5625 C 4.398438 -4.707031 4.4375 -4.914062 4.4375 -5.1875 C 4.4375 -5.894531 4.09375 -6.25 3.40625 -6.25 C 3.226562 -6.25 3.070312 -6.25 2.9375 -6.25 C 2.800781 -6.25 2.679688 -6.253906 2.578125 -6.265625 Z M 2.578125 -6.265625 "/></g></g></g><g fill="#ffffff" fill-opacity="1"><g transform="translate(44.704686, 15.216348)"><g><path d="M 0.703125 -1.390625 C 0.828125 -1.453125 0.957031 -1.5 1.09375 -1.53125 C 1.238281 -1.570312 1.390625 -1.59375 1.546875 -1.59375 C 1.878906 -1.59375 2.164062 -1.523438 2.40625 -1.390625 C 2.488281 -1.203125 2.53125 -0.984375 2.53125 -0.734375 C 2.53125 -0.609375 2.519531 -0.488281 2.5 -0.375 C 2.476562 -0.269531 2.445312 -0.175781 2.40625 -0.09375 C 2.195312 0.0507812 1.910156 0.125 1.546875 0.125 C 1.179688 0.125 0.898438 0.0507812 0.703125 -0.09375 C 0.660156 -0.175781 0.628906 -0.269531 0.609375 -0.375 C 0.585938 -0.488281 0.578125 -0.609375 0.578125 -0.734375 C 0.578125 -0.984375 0.617188 -1.203125 0.703125 -1.390625 Z M 0.703125 -1.390625 "/></g></g></g></svg>